<svg xmlns="http://www.w3.org/2000/svg">
  <g id="logo" fill="none" fill-rule="evenodd" font-family="Helvetica">
    <text font-size="35">
      <tspan x="0" y="34" fill="#000">SH</tspan>
      <tspan x="48.621" y="34" fill="#8BC34A">O</tspan>
      <tspan x="75.845" y="34" fill="#000">PPE</tspan>
    </text>
    <text fill="#000" font-size="12">
      <tspan x="32" y="50">Smart Marketplace</tspan>
    </text>
  </g>
  <g>
    <path id="liked" fill="#C8C8C8" fill-rule="evenodd"
          d="M14 26l-1.96-1.978C4.76 17.522 0 13.142 0 7.772 0 3.392 3.36 0 7.7 0c2.38 0 4.76 1.13 6.3 2.967C15.54 1.131 17.92 0 20.3 0 24.639 0 28 3.39 28 7.772c0 5.37-4.76 9.75-12.04 16.25L14 26z"/>
  </g>
  <g>
    <path id="cart" fill="#C8C8C8" fill-rule="evenodd"
          d="M11.656 9.002v.03c0 1.863 1.427 3.374 3.188 3.374 1.76 0 3.188-1.51 3.188-3.375v-.029h12.36c.888 0 1.609.756 1.609 1.688 0 .932-.72 1.687-1.61 1.687h-.995L23.424 27H8.417L2.443 12.376l-.836.001C.721 12.377 0 11.622 0 10.69s.72-1.687 1.607-1.687h10.05zm-.686 5.592h-.44a1 1 0 0 0-1 .998v7.035a1 1 0 0 0 1 .998h.44a.998.998 0 0 0 .999-.998v-7.035a.998.998 0 0 0-.999-.998zm5.22 0h-.473a1 1 0 0 0-1 .998v7.035a1 1 0 0 0 1 .998h.472c.551 0 .999-.447.999-.998v-7.035a.999.999 0 0 0-.999-.998zm5.155 0h-.47a.998.998 0 0 0-1 .998v7.035c0 .551.447.998 1 .998h.47a1 1 0 0 0 1-.998v-7.035a.999.999 0 0 0-1-.998zM19.529.188c.66.423.884 1.36.504 2.094l-3.675 7.08c-.381.733-1.224.985-1.883.561-.66-.423-.885-1.36-.505-2.094L17.645.75c.381-.733 1.223-.984 1.884-.561z"/>
  </g>

</svg>
